HIERARCHY
ROOT Hips
{
	OFFSET 0.00000 0.00000 0.00000
	CHANNELS 6 Xposition Yposition Zposition Zrotation Yrotation Xrotation 
	JOINT LHipJoint
	{
		OFFSET 0 0 0
		CHANNELS 3 Zrotation Yrotation Xrotation
		JOINT LeftUpLeg
		{
			OFFSET 1.39187 -1.60231 0.69152
			CHANNELS 3 Zrotation Yrotation Xrotation
			JOINT LeftLeg
			{
				OFFSET 2.43314 -6.68499 0.00000
				CHANNELS 3 Zrotation Yrotation Xrotation
				JOINT LeftFoot
				{
					OFFSET 2.32059 -6.37578 0.00000
					CHANNELS 3 Zrotation Yrotation Xrotation
					JOINT LeftToeBase
					{
						OFFSET 0.23021 -0.63250 1.71305
						CHANNELS 3 Zrotation Yrotation Xrotation
						End Site
						{
							OFFSET 0.00000 -0.00000 0.91647
						}
					}
				}
			}
		}
	}
	JOINT RHipJoint
	{
		OFFSET 0 0 0
		CHANNELS 3 Zrotation Yrotation Xrotation
		JOINT RightUpLeg
		{
			OFFSET -1.19407 -1.60231 0.69152
			CHANNELS 3 Zrotation Yrotation Xrotation
			JOINT RightLeg
			{
				OFFSET -2.44411 -6.71513 0.00000
				CHANNELS 3 Zrotation Yrotation Xrotation
				JOINT RightFoot
				{
					OFFSET -2.31924 -6.37207 0.00000
					CHANNELS 3 Zrotation Yrotation Xrotation
					JOINT RightToeBase
					{
						OFFSET -0.19473 -0.53502 1.87724
						CHANNELS 3 Zrotation Yrotation Xrotation
						End Site
						{
							OFFSET -0.00000 -0.00000 0.98293
						}
					}
				}
			}
		}
	}
	JOINT LowerBack
	{
		OFFSET 0 0 0
		CHANNELS 3 Zrotation Yrotation Xrotation
		JOINT Spine
		{
			OFFSET -0.01120 1.87307 0.09613
			CHANNELS 3 Zrotation Yrotation Xrotation
			JOINT Spine1
			{
				OFFSET 0.01099 1.87818 0.04834
				CHANNELS 3 Zrotation Yrotation Xrotation
				JOINT Neck
				{
					OFFSET 0 0 0
					CHANNELS 3 Zrotation Yrotation Xrotation
					JOINT Neck1
					{
						OFFSET 0.01702 1.40324 -0.12579
						CHANNELS 3 Zrotation Yrotation Xrotation
						JOINT Head
						{
							OFFSET -0.04239 1.38587 -0.01614
							CHANNELS 3 Zrotation Yrotation Xrotation
							End Site
							{
								OFFSET -0.02510 1.47031 -0.00154
							}
						}
					}
				}
				JOINT LeftShoulder
				{
					OFFSET 0 0 0
					CHANNELS 3 Zrotation Yrotation Xrotation
					JOINT LeftArm
					{
						OFFSET 2.95699 0.62343 0.11653
						CHANNELS 3 Zrotation Yrotation Xrotation
						JOINT LeftForeArm
						{
							OFFSET 4.68382 -0.00000 -0.00000
							CHANNELS 3 Zrotation Yrotation Xrotation
							JOINT LeftHand
							{
								OFFSET 2.98124 -0.00000 -0.00000
								CHANNELS 3 Zrotation Yrotation Xrotation
								JOINT LeftFingerBase
								{
									OFFSET 0 0 0
									CHANNELS 3 Zrotation Yrotation Xrotation
									JOINT LeftHandIndex1
									{
										OFFSET 0.70759 -0.00000 0.00000
										CHANNELS 3 Zrotation Yrotation Xrotation
										End Site
										{
											OFFSET 0.57048 -0.00000 0.00000
										}
									}
								}
								JOINT LThumb
								{
									OFFSET 0 0 0
									CHANNELS 3 Zrotation Yrotation Xrotation
									End Site
									{
										OFFSET 0.57919 -0.00000 0.57919
									}
								}
							}
						}
					}
				}
				JOINT RightShoulder
				{
					OFFSET 0 0 0
					CHANNELS 3 Zrotation Yrotation Xrotation
					JOINT RightArm
					{
						OFFSET -2.99027 0.88714 -0.02793
						CHANNELS 3 Zrotation Yrotation Xrotation
						JOINT RightForeArm
						{
							OFFSET -4.75876 -0.00000 -0.00000
							CHANNELS 3 Zrotation Yrotation Xrotation
							JOINT RightHand
							{
								OFFSET -2.93293 -0.00000 -0.00000
								CHANNELS 3 Zrotation Yrotation Xrotation
								JOINT RightFingerBase
								{
									OFFSET 0 0 0
									CHANNELS 3 Zrotation Yrotation Xrotation
									JOINT RightHandIndex1
									{
										OFFSET -0.83175 -0.00000 0.00000
										CHANNELS 3 Zrotation Yrotation Xrotation
										End Site
										{
											OFFSET -0.67058 -0.00000 0.00000
										}
									}
								}
								JOINT RThumb
								{
									OFFSET 0 0 0
									CHANNELS 3 Zrotation Yrotation Xrotation
									End Site
									{
										OFFSET -0.68082 -0.00000 0.68082
									}
								}
							}
						}
					}
				}
			}
		}
	}
}
MOTION
Frames: 16
Frame Time: .0083333
-24.1334 16.3756 -0.4768 0 0 0 0 0 0 -21 0 0 0 0 0 0 0 0 0 0 0 0 0 0 21 0 0 0 0 0 0 0 0 0 0 0 0 0 0 0 0 0 0 0 0 0 0 -16 0 0 21 0 0 11 0 0 0 -8 0 0 0 0 0 0 0 0 0 0 0 0 0 0 0 0 0 0 0 0 8 0 0 0 0 0 0 0 0 0 0 0 0 0 0 0 0 0
-24.1334 16.3756 -0.4768 -30.9044 87.1736 -18.5307 0.0000 0.0000 0.0000 -17.8236 -14.2945 -16.7991 2.2107 9.2919 26.7127 2.1771 -4.8207 -26.8236 0.0721 1.7328 4.7678 0.0000 0.0000 0.0000 19.3053 9.5881 -17.3061 -1.7329 -8.2861 23.5865 -0.5480 -5.5341 -17.0976 -0.3307 3.6960 -10.2230 -5.8735 -0.1144 -13.9882 1.6679 0.8396 -5.9200 5.2050 0.6502 1.4720 -7.6348 -0.0446 2.0979 19.5999 -1.2890 12.0174 7.4076 0.0091 3.2578 0.0000 0.0000 0.0000 -96.3249 1.3109 -18.7087 5.6265 -9.6378 -0.4747 -0.0000 -0.0000 68.5298 4.8996 22.9951 1.9180 -7.1250 0.0000 -0.0000 -24.2647 51.3881 -4.0176 0.0000 0.0000 0.0000 93.3670 -2.3826 11.5722 -8.1276 13.7595 -0.9823 0.0000 0.0000 27.8945 -14.5677 11.3871 -2.9373 7.1250 -0.0000 -0.0000 8.8080 -18.3038 5.6635
-24.1323 16.3753 -0.4772 -32.0473 87.2802 -19.8661 0.0000 0.0000 0.0000 -17.8646 -14.2353 -16.5852 2.2053 9.2812 26.6790 2.1563 -4.9802 -26.6665 0.0885 1.9189 5.2815 0.0000 0.0000 0.0000 19.3510 9.4878 -17.0889 -1.7331 -8.2865 23.5878 -0.5590 -5.5785 -17.2578 -0.3087 3.5719 -9.8752 -4.5870 -0.0038 -14.3096 0.7088 0.8487 -5.5290 3.4725 0.5902 2.1034 -7.1448 0.0587 1.8365 20.7159 -1.1802 11.8927 7.6948 0.1538 3.2456 -0.0000 0.0000 0.0000 -94.4032 -0.0561 -18.7365 4.7615 -8.1816 -0.3407 -0.0000 -0.0000 68.5168 5.5074 23.4307 2.1956 -7.1250 0.0000 -0.0000 -23.9379 51.8846 -4.2605 -0.0000 0.0000 0.0000 94.9831 -1.6742 10.7159 -7.9901 13.5368 -0.9498 0.0000 0.0000 29.2434 -14.7922 11.4480 -3.0002 7.1250 -0.0000 -0.0000 8.6500 -18.2276 5.5742
-24.1292 16.3741 -0.4772 -32.6324 87.3450 -20.4776 0.0000 0.0000 0.0000 -17.8773 -14.2218 -16.5695 2.2084 9.2874 26.6984 2.1593 -5.0595 -26.6748 0.0902 1.9369 5.3314 0.0000 0.0000 0.0000 19.3549 9.4653 -17.0415 -1.7323 -8.2846 23.5818 -0.5576 -5.6416 -17.2901 -0.3139 3.6020 -9.9594 -4.3467 -0.0276 -14.5226 0.5089 0.7995 -5.3973 3.1238 0.5503 2.3691 -7.0290 0.1281 1.8424 21.0693 -1.0879 11.8030 7.7926 0.2191 3.2028 0.0000 0.0000 0.0000 -93.9628 -0.4296 -18.7069 4.5314 -7.7920 -0.3088 -0.0000 -0.0000 68.3104 5.5768 23.5460 2.2338 -7.1250 0.0000 -0.0000 -23.9374 52.0013 -4.3314 0.0000 0.0000 0.0000 95.2911 -1.4778 10.8548 -7.9727 13.5086 -0.9457 0.0000 0.0000 29.3025 -14.8178 11.4658 -3.0102 7.1250 -0.0000 -0.0000 8.6319 -18.2076 5.5661
-24.1242 16.3699 -0.4787 -31.6301 87.3880 -19.5866 0.0000 0.0000 0.0000 -17.9973 -14.1171 -16.4574 2.2115 9.2934 26.7175 2.1765 -5.0881 -26.7815 0.0736 1.7507 4.8171 0.0000 0.0000 0.0000 19.3309 9.3223 -16.9518 -1.7302 -8.2800 23.5677 -0.5356 -5.8402 -17.1871 -0.4067 4.0942 -11.3418 -4.4189 -0.0624 -14.4815 0.5035 0.7598 -5.3629 3.1524 0.5290 2.3854 -6.9339 0.1315 1.9525 21.1072 -1.0689 11.6865 7.7845 0.2233 3.1465 0.0000 -0.0000 0.0000 -93.9996 -0.3319 -18.6459 4.5852 -7.8833 -0.3161 -0.0000 -0.0000 68.0741 5.4613 23.5509 2.1877 -7.1250 0.0000 -0.0000 -24.0485 51.9864 -4.3443 0.0000 -0.0000 0.0000 95.2587 -1.5519 11.2854 -8.0536 13.6397 -0.9647 0.0000 0.0000 28.7753 -14.7013 11.3986 -2.9683 7.1250 -0.0000 -0.0000 8.7143 -18.2837 5.6057
-24.1217 16.3687 -0.4800 -31.0296 87.1845 -18.9086 0.0000 0.0000 0.0000 -17.9228 -14.1413 -16.5240 2.2160 9.3022 26.7453 2.1838 -4.8759 -26.8592 0.0728 1.7412 4.7910 0.0000 0.0000 0.0000 19.3954 9.3934 -17.0544 -1.7276 -8.2741 23.5497 -0.5218 -5.8980 -17.0703 -0.4828 4.4558 -12.3627 -4.3316 -0.0006 -14.5944 0.4994 0.8365 -5.3804 3.1126 0.5666 2.4226 -6.9689 0.1248 1.9126 21.4206 -1.0881 11.6543 7.8968 0.2293 3.1453 -0.0000 0.0000 0.0000 -93.9878 -0.2613 -18.5395 4.6242 -7.9492 -0.3215 -0.0000 -0.0000 67.8269 5.5159 23.6812 2.2212 -7.1250 0.0000 -0.0000 -24.0709 52.1143 -4.4270 -0.0000 0.0000 0.0000 95.2866 -1.5598 11.3945 -8.0695 13.6655 -0.9685 0.0000 0.0000 28.5056 -14.7219 11.3582 -2.9623 7.1250 -0.0000 -0.0000 8.7005 -18.3235 5.5889
-24.1228 16.3736 -0.4804 -32.3676 87.1138 -20.2254 0.0000 0.0000 0.0000 -17.8092 -14.0665 -16.5931 2.2205 9.3111 26.7734 2.1887 -4.9824 -26.8749 0.0882 1.9151 5.2711 0.0000 0.0000 0.0000 19.4605 9.5162 -16.9866 -1.7210 -8.2591 23.5037 -0.5400 -5.7402 -17.1613 -0.3790 3.9540 -10.9474 -4.2388 0.0039 -14.5810 0.5005 0.8292 -5.3967 3.0597 0.5633 2.4006 -7.0511 0.1516 1.8488 21.7898 -1.0753 11.7140 8.0407 0.2586 3.1696 -0.0000 0.0000 0.0000 -93.9300 -0.2075 -18.4597 4.6477 -7.9891 -0.3247 -0.0000 -0.0000 67.5571 5.5985 23.6468 2.2515 -7.1250 0.0000 -0.0000 -23.9737 52.0967 -4.3967 -0.0000 0.0000 0.0000 95.3215 -1.5535 11.4224 -8.0542 13.6408 -0.9649 0.0000 0.0000 28.4208 -14.7205 11.2428 -2.9323 7.1250 -0.0000 -0.0000 8.7033 -18.4411 5.5678
-24.1243 16.3770 -0.4805 -33.5260 87.2334 -21.3490 0.0000 0.0000 0.0000 -17.7975 -13.9637 -16.7145 2.2278 9.3253 26.8183 2.1869 -5.2916 -26.8208 0.0935 1.9720 5.4284 0.0000 0.0000 0.0000 19.4363 9.5172 -16.9512 -1.7126 -8.2399 23.4450 -0.5464 -5.7070 -17.2094 -0.3083 3.5695 -9.8686 -4.6796 -0.1207 -14.5398 0.8026 0.7142 -5.4353 3.6080 0.5158 2.3347 -7.3007 0.1606 1.8935 21.7985 -1.0714 11.7478 8.0905 0.2473 3.1701 -0.0000 0.0000 0.0000 -94.4207 -0.1602 -18.3434 4.6690 -8.0250 -0.3277 -0.0000 -0.0000 67.4307 5.5932 23.5008 2.2363 -7.1250 0.0000 -0.0000 -23.8966 51.9629 -4.2999 -0.0000 0.0000 0.0000 94.8121 -1.5949 11.5390 -8.0728 13.6709 -0.9693 0.0000 0.0000 28.2822 -14.5127 11.2568 -2.8927 7.1250 -0.0000 -0.0000 8.8486 -18.4399 5.6633
-24.1212 16.3705 -0.4819 -33.5650 87.2364 -21.5830 0.0000 0.0000 0.0000 -17.8598 -13.8978 -16.5068 2.2329 9.3352 26.8496 2.1874 -5.2506 -26.8297 0.0818 1.8445 5.0760 0.0000 0.0000 0.0000 19.4980 9.3476 -16.7831 -1.7068 -8.2266 23.4045 -0.5213 -5.9032 -17.0690 -0.4013 4.0673 -11.2660 -5.0930 -0.1639 -14.3499 1.1014 0.6895 -5.3958 4.1513 0.5091 2.2644 -7.5504 0.1353 1.9182 21.7914 -1.1123 11.7670 8.1340 0.2133 3.1773 -0.0000 0.0000 0.0000 -94.8786 0.1300 -18.1692 4.8238 -8.2869 -0.3497 -0.0000 -0.0000 67.3021 5.4160 23.2870 2.1466 -7.1250 0.0000 -0.0000 -23.9435 51.7385 -4.1726 -0.0000 0.0000 0.0000 94.3112 -1.6233 11.5026 -8.0841 13.6890 -0.9719 0.0000 0.0000 28.3125 -14.3798 11.5328 -2.9343 7.1250 -0.0000 -0.0000 8.9370 -18.1675 5.7757
-24.1221 16.3667 -0.4822 -34.6517 87.0987 -22.5463 0.0000 0.0000 0.0000 -17.7038 -13.9598 -16.6475 2.2330 9.3353 26.8500 2.1825 -5.0852 -26.8210 0.0699 1.7057 4.6931 0.0000 0.0000 0.0000 19.6094 9.4336 -16.9625 -1.7075 -8.2283 23.4096 -0.5002 -6.0312 -16.9210 -0.4722 4.4074 -12.2256 -4.5644 -0.0705 -14.4865 0.8158 0.7598 -5.4155 3.5630 0.5365 2.3246 -7.3749 0.1291 1.8662 22.1331 -1.1355 11.7929 8.2206 0.2352 3.1961 -0.0000 -0.0000 0.0000 -94.2994 0.4039 -18.0705 4.9706 -8.5348 -0.3711 -0.0000 -0.0000 67.0971 5.1845 23.0640 2.0358 -7.1250 0.0000 -0.0000 -24.0367 51.4972 -4.0428 -0.0000 -0.0000 0.0000 94.8629 -1.5548 11.1202 -8.0684 13.6637 -0.9682 0.0000 0.0000 28.7612 -14.4487 11.6736 -2.9844 7.1250 -0.0000 -0.0000 8.8866 -18.0201 5.7716
-24.1061 16.3660 -0.4867 -31.3618 86.5910 -19.4333 0.0000 0.0000 0.0000 -17.7221 -14.0678 -16.2111 2.2290 9.3276 26.8256 2.1988 -4.3075 -27.0442 0.0684 1.6878 4.6436 0.0000 0.0000 0.0000 19.6618 9.6192 -16.6680 -1.7092 -8.2322 23.4216 -0.5525 -5.4441 -17.0819 -0.3807 3.9624 -10.9708 -4.0105 0.1633 -14.6024 0.5407 1.0029 -5.3184 3.0019 0.6423 2.4841 -7.2307 0.1742 1.8935 22.4397 -1.0820 11.7873 8.3005 0.2850 3.1796 -0.0000 -0.0000 0.0000 -93.8732 0.2402 -18.0528 4.8751 -8.3736 -0.3571 -0.0000 -0.0000 66.9966 5.2182 23.1424 2.0556 -7.1250 0.0000 -0.0000 -24.0486 51.5742 -4.0922 -0.0000 -0.0000 0.0000 95.3344 -1.5896 11.2065 -8.1020 13.7181 -0.9762 0.0000 0.0000 28.7765 -14.5688 11.5125 -2.9693 7.1250 -0.0000 -0.0000 8.8052 -18.1760 5.6868
-24.1304 16.3758 -0.4785 -36.2491 87.3117 -23.9840 0.0000 0.0000 0.0000 -17.6845 -13.8116 -16.8992 2.2250 9.3198 26.8009 2.1797 -5.5114 -26.7467 0.0772 1.7924 4.9323 0.0000 0.0000 0.0000 19.5128 9.5592 -17.0356 -1.7147 -8.2447 23.4597 -0.5479 -5.6784 -17.2054 -0.2992 3.5169 -9.7214 -4.7518 -0.2478 -14.4544 0.8834 0.5511 -5.5084 3.7059 0.4420 2.2253 -7.5503 0.2243 1.9421 22.4599 -1.0097 11.7129 8.3647 0.2962 3.1366 -0.0000 -0.0000 0.0000 -94.4670 0.0056 -18.0104 4.7522 -8.1658 -0.3394 -0.0000 -0.0000 67.0299 5.4472 23.3810 2.1672 -7.1250 0.0000 -0.0000 -23.9667 51.8293 -4.2324 -0.0000 -0.0000 0.0000 94.7852 -1.6345 11.6292 -8.1272 13.7588 -0.9822 0.0000 0.0000 28.3579 -14.5891 11.3976 -2.9444 7.1250 -0.0000 -0.0000 8.7928 -18.2918 5.6559
-24.1019 16.3701 -0.4874 -33.0309 87.1237 -21.1284 0.0000 0.0000 0.0000 -17.8887 -14.0703 -16.1753 2.2156 9.3014 26.7427 2.2031 -4.8769 -26.9824 0.0802 1.8269 5.0274 0.0000 0.0000 0.0000 19.4963 9.3956 -16.6022 -1.7201 -8.2569 23.4971 -0.5683 -5.5220 -17.3230 -0.3109 3.5846 -9.9110 -4.2287 -0.0778 -14.5763 0.5086 0.7147 -5.2831 3.0450 0.4984 2.5272 -7.3574 0.2193 1.8207 22.8193 -1.0279 11.7178 8.4548 0.3248 3.1611 -0.0000 -0.0000 0.0000 -93.9283 -0.0324 -17.9074 4.7404 -8.1459 -0.3377 -0.0000 -0.0000 66.9783 5.5291 23.3667 2.1987 -7.1250 0.0000 -0.0000 -23.8818 51.8299 -4.2163 -0.0000 -0.0000 0.0000 95.3434 -1.4726 11.1801 -8.0658 13.6595 -0.9676 0.0000 0.0000 28.7756 -14.5860 11.4340 -2.9530 7.1250 -0.0000 -0.0000 8.7944 -18.2550 5.6641
-24.1191 16.3726 -0.4833 -33.3664 87.1041 -21.2892 0.0000 0.0000 0.0000 -17.7788 -14.1282 -16.4418 2.2080 9.2866 26.6959 2.1916 -4.9568 -26.8975 0.0812 1.8382 5.0586 0.0000 0.0000 0.0000 19.4895 9.5642 -16.8479 -1.7266 -8.2718 23.5426 -0.5468 -5.6794 -17.1933 -0.3152 3.6088 -9.9786 -4.6036 -0.0905 -14.4302 0.7190 0.7385 -5.4176 3.4788 0.5260 2.2951 -7.4121 0.1208 1.8205 22.7174 -1.1595 11.7062 8.4277 0.2512 3.1798 0.0000 -0.0000 0.0000 -94.2557 -0.0256 -17.6271 4.7345 -8.1360 -0.3369 -0.0000 -0.0000 66.8148 5.4701 23.3848 2.1767 -7.1250 0.0000 -0.0000 -23.9472 51.8365 -4.2330 0.0000 -0.0000 0.0000 95.0179 -1.5503 11.4364 -8.1103 13.7315 -0.9781 0.0000 0.0000 28.3000 -14.5765 11.2755 -2.9107 7.1250 -0.0000 -0.0000 8.8035 -18.4169 5.6383
-24.1146 16.3731 -0.4843 -35.5770 87.3193 -23.6499 0.0000 0.0000 0.0000 -17.8303 -13.9513 -16.3202 2.2027 9.2761 26.6629 2.1878 -5.2930 -26.8267 0.0805 1.8297 5.0352 0.0000 0.0000 0.0000 19.5241 9.4458 -16.6489 -1.7257 -8.2698 23.5366 -0.5463 -5.8130 -17.2901 -0.3090 3.5736 -9.8800 -4.7437 -0.1849 -14.3298 0.8031 0.6225 -5.3725 3.6273 0.4678 2.2959 -7.4930 0.0714 1.8956 22.7359 -1.2230 11.6526 8.4464 0.2094 3.1610 -0.0000 -0.0000 0.0000 -94.3915 0.0543 -17.4933 4.7726 -8.2004 -0.3423 -0.0000 -0.0000 66.6905 5.3998 23.3685 2.1471 -7.1250 0.0000 -0.0000 -24.0041 51.8099 -4.2279 -0.0000 -0.0000 0.0000 94.8823 -1.6162 11.6862 -8.1390 13.7779 -0.9850 0.0000 0.0000 28.0217 -14.6420 11.1864 -2.9016 7.1250 -0.0000 -0.0000 8.7590 -18.5035 5.5921
-24.1110 16.3707 -0.4865 -31.0573 86.9633 -19.1409 0.0000 0.0000 0.0000 -17.9161 -13.9528 -16.2339 2.2081 9.2867 26.6963 2.1919 -4.8247 -26.9186 0.0832 1.8611 5.1219 0.0000 0.0000 0.0000 19.4590 9.5272 -16.6710 -1.7247 -8.2675 23.5294 -0.5715 -5.4314 -17.2919 -0.3275 3.6781 -10.1729 -4.6373 -0.0521 -14.4516 0.7281 0.7905 -5.3223 3.5173 0.5450 2.4013 -7.5423 0.0903 1.9109 22.8997 -1.1936 11.5739 8.5104 0.2241 3.1297 -0.0000 0.0000 0.0000 -94.2870 0.0857 -17.4303 4.8144 -8.2711 -0.3483 -0.0000 -0.0000 66.6257 5.3602 23.4274 2.1364 -7.1250 0.0000 -0.0000 -24.0741 51.8571 -4.2703 -0.0000 0.0000 0.0000 94.9790 -1.5573 11.6097 -8.1150 13.7391 -0.9793 0.0000 0.0000 28.1877 -14.7034 11.2989 -2.9432 7.1250 -0.0000 -0.0000 8.7143 -18.3851 5.5860
